<svg version="1.1" id="Layer_1" xmlns="http://www.w3.org/2000/svg" xmlns:xlink="http://www.w3.org/1999/xlink" x="0px" y="0px"
	 width="100%" viewBox="0 0 3840 2160" enable-background="new 0 0 3840 2160" xml:space="preserve">

<path fill="#23A2E9" opacity="1.000000" stroke="none" 
	d="
M2237.887207,1685.436646 
	C2224.950439,1686.159424 2212.015869,1687.413330 2199.076416,1687.468140 
	C2183.482422,1687.534180 2167.882080,1686.636719 2152.288086,1686.054688 
	C2137.677979,1685.509644 2123.067627,1684.930298 2108.468018,1684.162109 
	C2102.844238,1683.866211 2097.251953,1682.991333 2091.642090,1682.410522 
	C2084.385010,1681.659058 2077.112793,1681.036133 2069.869141,1680.173218 
	C2063.610107,1679.427612 2057.373535,1678.480225 2051.144531,1677.509521 
	C2048.197998,1677.050415 2045.277466,1675.744507 2042.370850,1675.819214 
	C2023.531006,1676.303467 2005.665161,1670.737305 1987.435181,1667.401001 
	C1975.740112,1665.260620 1963.947510,1663.656128 1952.242676,1661.564941 
	C1942.488647,1659.822266 1932.754395,1657.917114 1923.088745,1655.739990 
	C1899.547729,1650.437378 1876.062866,1644.887207 1852.534668,1639.527100 
	C1829.652466,1634.314087 1806.826904,1628.969604 1784.426270,1621.827148 
	C1771.542725,1617.719360 1758.255005,1614.885986 1745.169556,1611.401855 
	C1738.116943,1609.523804 1731.112549,1607.465210 1724.077393,1605.520508 
	C1707.814697,1601.024658 1691.458252,1596.841431 1675.305908,1591.979980 
	C1660.106201,1587.405029 1645.117920,1582.126831 1630.039062,1577.151001 
	C1618.744873,1573.423706 1607.475830,1569.618774 1596.157471,1565.966553 
	C1579.137085,1560.473999 1561.905762,1555.579956 1545.080811,1549.548218 
	C1510.765381,1537.245972 1476.551147,1524.642334 1442.502563,1511.620361 
	C1411.602417,1499.802612 1380.938354,1487.362549 1350.243774,1475.014160 
	C1325.978760,1465.252319 1301.619629,1455.681763 1277.680542,1445.165283 
	C1254.017700,1434.770386 1230.570312,1423.809692 1207.491211,1412.178833 
	C1169.085083,1392.823975 1130.738770,1373.305176 1092.959229,1352.766602 
	C1065.270508,1337.713867 1038.191772,1321.481812 1012.948486,1302.389160 
	C1000.779480,1293.185303 987.961243,1284.844727 975.589050,1275.902832 
	C967.046814,1269.729004 958.115967,1269.799927 949.387817,1274.498779 
	C930.988342,1284.403809 912.861877,1294.816162 894.625610,1305.024170 
	C865.419312,1321.373047 836.209351,1337.715210 807.011597,1354.079224 
	C789.064758,1364.137451 771.131897,1374.220703 753.203125,1384.311035 
	C723.157776,1401.220947 693.186523,1418.263428 663.065857,1435.037842 
	C609.464478,1464.888794 555.736389,1494.512451 502.135254,1524.363770 
	C465.674133,1544.669556 429.359497,1565.238159 392.942169,1585.622925 
	C353.332581,1607.794189 313.655457,1629.844727 274.053802,1652.030029 
	C239.914703,1671.155151 205.874786,1690.457520 171.728561,1709.569946 
	C129.786285,1733.046021 87.781479,1756.410400 45.789658,1779.797974 
	C44.395741,1780.574341 42.847927,1781.074341 40.431255,1782.103760 
	C40.431255,1314.308716 40.431255,847.406738 40.431255,379.315155 
	C48.430649,383.608704 55.677418,387.334229 62.770195,391.332916 
	C98.259026,411.340546 133.669724,431.486969 169.182388,451.452087 
	C196.333694,466.716431 223.593842,481.787231 250.809570,496.936951 
	C287.331390,517.266846 323.863617,537.578064 360.379517,557.918518 
	C408.161591,584.534546 455.975525,611.093811 503.691895,637.827209 
	C534.368530,655.013977 564.802979,672.633545 595.511841,689.761902 
	C630.186890,709.102356 665.092651,728.028809 699.810608,747.292969 
	C719.784485,758.375916 739.538330,769.854736 759.474304,781.006897 
	C793.619263,800.107483 827.856750,819.042725 862.003967,838.139404 
	C890.929382,854.315857 919.779419,870.626892 948.668457,886.868530 
	C957.508972,891.838684 966.082642,892.359253 974.788818,886.145447 
	C993.721069,872.633118 1012.427246,858.740601 1031.980469,846.178040 
	C1054.864380,831.475586 1078.278564,817.540161 1101.967651,804.166138 
	C1124.495483,791.447632 1147.577637,779.693909 1170.596802,767.867737 
	C1190.074585,757.861084 1209.553101,747.789001 1229.489746,738.757690 
	C1263.855347,723.190125 1298.529907,708.299622 1333.166260,693.336731 
	C1355.060181,683.878662 1376.975342,674.438904 1399.150757,665.673279 
	C1417.321045,658.490967 1435.918335,652.394104 1454.272461,645.669617 
	C1467.638428,640.772644 1480.879028,635.533264 1494.244263,630.634460 
	C1510.073120,624.832703 1525.920532,619.072083 1541.860107,613.584412 
	C1563.477783,606.141724 1585.150269,598.852539 1606.875854,591.731323 
	C1622.289917,586.679016 1637.782837,581.852905 1653.326294,577.213562 
	C1675.536987,570.584229 1697.787964,564.081970 1720.093018,557.777649 
	C1742.054321,551.570435 1764.141235,545.807617 1786.102295,539.599731 
	C1800.077637,535.649231 1813.863159,531.023193 1827.853027,527.129028 
	C1835.465454,525.010071 1843.347412,523.877319 1851.071533,522.138855 
	C1862.971924,519.460388 1874.807251,516.484436 1886.733887,513.933044 
	C1897.400024,511.651337 1908.161865,509.821198 1918.863037,507.698822 
	C1925.015381,506.478607 1931.115112,504.993408 1937.266724,503.769165 
	C1948.612427,501.511230 1959.959839,499.252136 1971.341675,497.187317 
	C1985.648560,494.591736 1999.989014,492.179352 2014.318726,489.709839 
	C2023.466064,488.133453 2032.567017,486.009491 2041.783325,485.171722 
	C2057.940918,483.702942 2073.725830,478.425507 2091.612305,480.838196 
	C2095.346436,480.896179 2097.677734,480.474609 2100.009277,480.053040 
	C2102.208984,479.464325 2104.408447,478.875610 2107.516602,478.605896 
	C2108.962158,478.653107 2109.499268,478.381317 2110.036133,478.109497 
	C2110.895264,478.008026 2111.754395,477.906525 2113.846680,478.454529 
	C2118.017090,479.398041 2120.965332,480.029694 2123.888916,479.930084 
	C2139.745605,479.389771 2155.593994,478.213165 2171.448730,478.153107 
	C2184.310303,478.104370 2197.170898,479.684753 2210.042480,479.893951 
	C2229.957764,480.217682 2249.883057,480.070221 2269.802246,479.899536 
	C2272.568848,479.875854 2275.324707,478.581604 2278.085449,477.875549 
	C2280.184326,478.011963 2282.283447,478.148346 2285.347168,479.151215 
	C2289.448242,483.042847 2292.685547,482.562744 2295.973877,480.294983 
	C2310.291504,480.113922 2324.503662,480.528625 2338.611572,483.746033 
	C2345.331543,485.278656 2352.475342,484.863281 2359.393066,485.636505 
	C2371.239990,486.960663 2383.113281,488.194824 2394.877197,490.079498 
	C2407.294922,492.069000 2419.575195,494.903351 2431.961914,497.107361 
	C2437.173096,498.034546 2442.608398,497.816528 2447.758057,498.951080 
	C2458.740479,501.370514 2469.567871,504.484467 2480.523193,507.037384 
	C2495.991699,510.642029 2511.551025,513.859192 2527.008057,517.510193 
	C2536.014648,519.637512 2544.907227,522.251892 2553.833252,524.711914 
	C2567.202881,528.396362 2580.630859,531.894775 2593.897461,535.921997 
	C2607.810059,540.145325 2621.729004,544.450684 2635.345703,549.523743 
	C2657.044922,557.608093 2678.763916,565.744934 2699.978760,574.995911 
	C2721.823730,584.521667 2743.437500,594.723999 2764.497803,605.867371 
	C2792.314453,620.585815 2820.060791,635.596375 2846.772949,652.194275 
	C2869.286377,666.183105 2890.282227,682.615540 2911.944336,697.973816 
	C2913.022949,698.738403 2914.052490,699.572205 2916.291260,701.276611 
	C2908.704590,707.983215 2902.011230,714.238708 2894.966309,720.069153 
	C2865.239990,744.670227 2835.426514,769.165771 2805.611572,793.659363 
	C2775.051025,818.765503 2744.364746,843.719238 2713.889404,868.928406 
	C2667.775391,907.073914 2621.853760,945.451904 2575.743164,983.601868 
	C2534.770996,1017.500671 2493.630371,1051.195923 2452.620117,1085.048950 
	C2444.947998,1091.381958 2437.461670,1097.947998 2430.063477,1104.599854 
	C2428.151123,1106.319214 2426.464600,1108.579590 2425.425537,1110.924316 
	C2422.682129,1117.115112 2423.631348,1120.747437 2429.420166,1124.385376 
	C2442.632324,1132.688354 2455.974609,1140.791870 2469.396729,1148.752197 
	C2486.816406,1159.083374 2504.370605,1169.188354 2521.858154,1179.406006 
	C2547.664307,1194.484497 2573.506348,1209.502075 2599.252686,1224.682373 
	C2628.710693,1242.051147 2658.043457,1259.632446 2687.500732,1277.002808 
	C2710.392822,1290.501709 2733.429443,1303.755371 2756.332764,1317.234985 
	C2777.793701,1329.865601 2799.139893,1342.691528 2820.581299,1355.355225 
	C2847.474365,1371.238770 2874.413574,1387.044922 2901.332764,1402.884033 
	C2915.644043,1411.304688 2929.968994,1419.702148 2944.245850,1428.180664 
	C2945.582520,1428.974731 2946.616699,1430.278076 2948.917480,1432.367432 
	C2940.173340,1439.879150 2932.331543,1447.462769 2923.648438,1453.913452 
	C2899.136963,1472.122803 2874.494141,1490.173340 2849.461670,1507.654785 
	C2838.338135,1515.422729 2825.925293,1521.316650 2814.495361,1528.679199 
	C2782.009766,1549.604614 2746.557861,1564.798340 2712.027344,1581.708130 
	C2695.419678,1589.841064 2677.575684,1595.448608 2660.295898,1602.211304 
	C2651.659180,1605.591675 2643.134033,1609.291138 2634.377686,1612.323853 
	C2621.590576,1616.752319 2608.653564,1620.751465 2595.756104,1624.857788 
	C2582.850098,1628.966675 2569.958252,1633.131714 2556.974854,1636.983887 
	C2548.714355,1639.434692 2540.323486,1641.463623 2531.946777,1643.499268 
	C2514.606934,1647.712891 2497.289795,1652.041382 2479.862305,1655.862793 
	C2468.249268,1658.409058 2456.467041,1660.189941 2444.751465,1662.260010 
	C2428.457764,1665.138916 2412.153564,1667.955566 2395.857666,1670.821289 
	C2367.759033,1675.762573 2339.459717,1678.886841 2310.963379,1680.238281 
	C2310.297607,1680.269897 2309.594971,1680.144165 2308.969727,1680.313599 
	C2287.053955,1686.257446 2264.622803,1683.689819 2240.979980,1684.358643 
	C2239.009521,1684.711304 2238.448242,1685.073975 2237.887207,1685.436646 
M2394.084229,788.966614 
	C2394.892334,789.623352 2395.700684,790.280090 2396.508789,790.936829 
	C2396.046875,789.817200 2395.584717,788.697571 2394.984863,786.395203 
	C2394.704346,786.114258 2394.424072,785.833252 2395.096680,784.777954 
	C2395.376465,784.479065 2395.656250,784.180237 2397.272705,784.128845 
	C2398.177002,784.149597 2399.081055,784.170349 2400.832764,785.146729 
	C2404.011230,784.024780 2407.271484,783.088867 2410.347412,781.734375 
	C2414.341797,779.975342 2413.855225,777.010071 2411.968506,773.019348 
	C2411.968506,773.019348 2412.159424,772.168701 2413.396484,772.103394 
	C2414.867432,771.374756 2416.338135,770.646179 2419.225830,769.796753 
	C2420.045898,769.273010 2421.071777,768.917053 2421.655273,768.200745 
	C2432.121826,755.352722 2430.803223,740.260193 2429.241455,725.349060 
	C2428.837646,721.494995 2428.087646,716.309875 2422.046143,714.279724 
	C2421.778564,711.157715 2422.114014,707.448730 2416.974609,709.598022 
	C2416.762939,709.963196 2416.449463,710.102417 2414.945801,709.285950 
	C2412.004883,706.041138 2409.063721,702.796326 2405.953125,698.358215 
	C2404.286621,697.564819 2402.619873,696.771423 2400.351318,695.050720 
	C2400.243164,694.698425 2400.135254,694.346130 2399.819336,692.586426 
	C2399.264160,691.795166 2398.870361,690.779053 2398.129395,690.246094 
	C2385.351318,681.054382 2371.302246,682.352356 2357.661133,686.852234 
	C2353.526123,688.216309 2347.099854,689.650085 2345.491455,697.256714 
	C2344.897705,698.740784 2344.303955,700.224854 2342.788086,702.290649 
	C2341.968750,703.010193 2341.149414,703.729797 2339.006104,704.188782 
	C2337.345215,705.451355 2335.684326,706.713989 2332.633301,708.200806 
	C2328.069336,712.538818 2324.380615,717.556030 2323.790039,723.927734 
	C2322.947998,733.009399 2321.848389,742.217712 2322.547363,751.241150 
	C2323.046875,757.691101 2324.963379,764.702332 2331.977783,769.621033 
	C2336.266602,780.866577 2345.665283,786.669312 2355.782715,791.476624 
	C2358.459961,792.748657 2359.899414,790.448486 2361.614014,787.722107 
	C2363.032471,788.031616 2364.451172,788.341125 2366.007812,790.183411 
	C2366.372070,791.067078 2366.700439,792.702515 2367.105957,792.721924 
	C2373.427002,793.023987 2379.760742,793.224426 2386.081787,793.071716 
	C2386.635986,793.058289 2387.126465,790.412964 2388.670410,788.161743 
	C2389.847900,787.577209 2391.025635,786.992737 2392.897461,787.348999 
	C2393.259521,787.480286 2393.621826,787.611633 2394.084229,788.966614 
z"/>
<path fill="#24A2E9" opacity="1.000000" stroke="none" 
	d="
M3366.675293,1243.210449 
	C3361.276123,1245.040405 3356.592285,1246.545166 3351.907715,1248.048828 
	C3337.130859,1252.791870 3322.443604,1257.843628 3307.544434,1262.164917 
	C3298.048828,1264.918945 3288.123291,1266.177246 3278.599121,1268.849609 
	C3266.495361,1272.245728 3254.455078,1272.538696 3242.168213,1270.435425 
	C3238.254639,1269.765625 3234.187500,1270.050293 3230.227295,1269.584595 
	C3224.971680,1268.966675 3219.577393,1268.626587 3214.553467,1267.126709 
	C3203.776367,1263.908936 3193.160156,1260.132812 3182.560303,1256.354492 
	C3178.888672,1255.045776 3175.422852,1253.127441 3171.928955,1251.358032 
	C3166.335693,1248.526245 3160.612305,1245.887207 3155.285400,1242.611450 
	C3149.397949,1238.990845 3143.889893,1234.752319 3138.233398,1230.759033 
	C3137.696777,1230.380249 3137.354736,1229.705811 3136.798828,1229.377319 
	C3121.548096,1220.364258 3110.959717,1206.609741 3100.536377,1192.895996 
	C3089.124268,1177.881226 3078.392822,1162.337646 3073.415039,1143.681274 
	C3072.140381,1138.903809 3071.057373,1133.915649 3068.793457,1129.597168 
	C3064.925537,1122.219604 3064.472900,1114.448975 3063.909180,1106.448486 
	C3063.425293,1099.580322 3061.165527,1092.818604 3060.880371,1085.960449 
	C3060.607666,1079.405029 3062.308350,1072.789917 3062.370361,1066.193726 
	C3062.538574,1048.265137 3068.723145,1031.649292 3074.161865,1015.087097 
	C3077.947021,1003.560547 3084.159180,992.564026 3090.805664,982.315674 
	C3098.168457,970.962891 3106.312988,959.784973 3115.838623,950.251099 
	C3127.715088,938.364868 3139.774902,926.188843 3155.719482,919.287476 
	C3158.152344,918.234436 3160.581055,917.004822 3162.709961,915.445312 
	C3175.036621,906.415833 3189.635254,902.950134 3203.711182,898.013184 
	C3214.517822,894.222839 3225.726807,894.044128 3236.675293,891.970459 
	C3262.534424,887.072754 3286.728027,893.400940 3310.934814,900.423096 
	C3327.466309,905.218689 3343.867432,910.538879 3360.095703,916.278381 
	C3371.278809,920.233582 3382.119141,925.186401 3393.017822,929.911804 
	C3406.694824,935.841919 3420.470703,941.597900 3433.833740,948.181030 
	C3444.152588,953.264404 3453.549316,960.279663 3463.996582,965.026001 
	C3475.556641,970.277771 3486.135010,976.937073 3496.594482,983.915527 
	C3506.757324,990.695923 3517.539795,996.808228 3526.697998,1004.769104 
	C3538.564453,1015.083801 3552.256348,1022.436523 3564.937744,1031.382202 
	C3585.136475,1045.630249 3607.669189,1055.540771 3629.715332,1066.240723 
	C3639.717041,1071.095093 3651.076172,1073.144165 3661.802002,1076.521240 
	C3664.848145,1077.480225 3667.833252,1078.634399 3673.227783,1080.540771 
	C3665.454102,1083.491699 3660.236328,1086.339844 3654.674316,1087.425781 
	C3635.778809,1091.115479 3619.173828,1100.201172 3602.433838,1108.893066 
	C3570.856934,1125.288208 3541.562744,1145.159912 3513.201660,1166.667725 
	C3497.944092,1178.238770 3481.110107,1187.884399 3464.373047,1197.307983 
	C3447.936279,1206.562622 3430.859375,1214.727173 3413.800781,1222.815552 
	C3402.167480,1228.331421 3390.069092,1232.863770 3378.206299,1237.900757 
	C3374.553955,1239.451660 3370.992920,1241.217163 3366.675293,1243.210449 
z"/>
<path fill="#40A2DA" opacity="1.000000" stroke="none" 
	d="
M2277.443115,477.340332 
	C2275.324707,478.581604 2272.568848,479.875854 2269.802246,479.899536 
	C2249.883057,480.070221 2229.957764,480.217682 2210.042480,479.893951 
	C2197.170898,479.684753 2184.310303,478.104370 2171.448730,478.153107 
	C2155.593994,478.213165 2139.745605,479.389771 2123.888916,479.930084 
	C2120.965332,480.029694 2118.017090,479.398041 2114.497070,478.490845 
	C2119.749023,477.148102 2125.566406,476.048828 2131.423340,475.761749 
	C2146.010010,475.046814 2160.614014,474.356750 2175.212891,474.314331 
	C2187.459717,474.278717 2199.705322,475.330078 2211.958008,475.618439 
	C2233.569580,476.127136 2255.186279,476.421234 2277.443115,477.340332 
z"/>
<path fill="#40A2DA" opacity="1.000000" stroke="none" 
	d="
M2295.281250,480.029541 
	C2292.685547,482.562744 2289.448242,483.042847 2286.104492,479.381897 
	C2288.794434,479.085419 2291.691650,479.424774 2295.281250,480.029541 
z"/>
<path fill="#40A2DA" opacity="1.000000" stroke="none" 
	d="
M2099.216797,479.880554 
	C2097.677734,480.474609 2095.346436,480.896179 2092.538086,480.884430 
	C2094.182373,480.203430 2096.303223,479.955780 2099.216797,479.880554 
z"/>
<path fill="#40A2DA" opacity="1.000000" stroke="none" 
	d="
M2109.504639,478.003662 
	C2109.499268,478.381317 2108.962158,478.653107 2108.207031,478.637695 
	C2108.316895,478.199585 2108.645020,478.048706 2109.504639,478.003662 
z"/>
<path fill="#67B7E6" opacity="1.000000" stroke="none" 
	d="
M2238.405273,1685.566895 
	C2238.448242,1685.073975 2239.009521,1684.711304 2240.082031,1684.413574 
	C2240.037109,1684.884766 2239.480225,1685.290894 2238.405273,1685.566895 
z"/>
<path fill="#D2F3FC" opacity="1.000000" stroke="none" 
	d="
M2340.330078,704.449341 
	C2341.149414,703.729797 2341.968750,703.010193 2343.958496,702.110046 
	C2346.081299,701.941284 2347.033936,701.953125 2347.935059,702.666992 
	C2344.009521,709.362854 2339.448730,715.028259 2336.392578,721.413757 
	C2328.096924,738.746155 2331.283936,755.835205 2344.421143,769.522827 
	C2346.799561,772.000977 2350.678955,773.849243 2348.649414,778.486389 
	C2343.346191,774.290833 2338.754883,770.061523 2334.175293,765.173950 
	C2333.517334,762.959412 2332.847412,761.403015 2332.135986,759.110596 
	C2330.942139,754.520142 2331.331055,749.911499 2326.682861,746.826538 
	C2326.647949,740.761353 2326.791992,735.549438 2327.497559,730.106750 
	C2328.568359,728.437866 2329.077393,726.999756 2329.707031,724.841553 
	C2331.511230,719.624023 2333.194824,715.126587 2335.453613,710.402771 
	C2337.462402,708.267395 2338.896240,706.358337 2340.330078,704.449341 
z"/>
<path fill="#44A5DC" opacity="1.000000" stroke="none" 
	d="
M2422.138916,715.869690 
	C2428.087646,716.309875 2428.837646,721.494995 2429.241455,725.349060 
	C2430.803223,740.260193 2432.121826,755.352722 2421.655273,768.200745 
	C2421.071777,768.917053 2420.045898,769.273010 2418.546875,769.132019 
	C2417.764648,767.504578 2417.661133,766.541931 2417.908203,764.923340 
	C2422.264404,758.063110 2422.880371,751.194824 2422.334229,743.264160 
	C2422.386963,740.272888 2422.319092,738.092590 2422.426270,735.165100 
	C2422.679443,732.887573 2422.756836,731.357239 2423.239258,729.293396 
	C2423.055176,724.537720 2422.466064,720.315491 2421.943359,716.038330 
	C2422.009521,715.983337 2422.138916,715.869690 2422.138916,715.869690 
z"/>
<path fill="#50AADD" opacity="1.000000" stroke="none" 
	d="
M2334.878418,710.629150 
	C2333.194824,715.126587 2331.511230,719.624023 2329.104980,725.061707 
	C2327.899902,727.447144 2327.417969,728.892334 2326.936035,730.337585 
	C2326.791992,735.549438 2326.647949,740.761353 2326.481934,747.533386 
	C2327.714600,752.690613 2328.969482,756.287659 2330.206055,760.538574 
	C2330.790527,762.817688 2331.393555,764.442810 2331.996094,766.600220 
	C2331.980225,767.487183 2331.965088,767.841736 2331.949951,768.196228 
	C2324.963379,764.702332 2323.046875,757.691101 2322.547363,751.241150 
	C2321.848389,742.217712 2322.947998,733.009399 2323.790039,723.927734 
	C2324.380615,717.556030 2328.069336,712.538818 2333.489258,708.769043 
	C2334.522705,709.767822 2334.700439,710.198486 2334.878418,710.629150 
z"/>
<path fill="#44A5DC" opacity="1.000000" stroke="none" 
	d="
M2346.063232,696.179810 
	C2347.099854,689.650085 2353.526123,688.216309 2357.661133,686.852234 
	C2371.302246,682.352356 2385.351318,681.054382 2398.129395,690.246094 
	C2398.870361,690.779053 2399.264160,691.795166 2399.196045,693.219727 
	C2396.238770,693.408142 2393.904785,692.963135 2390.851074,692.385742 
	C2388.187988,691.964111 2386.244873,691.674927 2384.013184,690.690063 
	C2375.383545,686.800598 2370.594482,687.205078 2365.019043,691.643005 
	C2362.356445,692.097961 2360.421631,692.422485 2357.772217,692.587646 
	C2353.392578,693.678711 2349.728027,694.929260 2346.063232,696.179810 
z"/>
<path fill="#40A2DA" opacity="1.000000" stroke="none" 
	d="
M2331.963867,768.908630 
	C2331.965088,767.841736 2331.980225,767.487183 2332.541016,766.569946 
	C2333.445557,765.948914 2333.804443,765.890564 2334.163574,765.832153 
	C2338.754883,770.061523 2343.346191,774.290833 2348.687988,778.467651 
	C2349.438721,778.415222 2349.493652,778.453491 2349.465088,778.898682 
	C2349.436523,779.343872 2349.749756,780.179382 2349.880371,780.819153 
	C2351.418701,782.143921 2352.826416,782.828979 2354.697266,784.032715 
	C2356.927490,784.586609 2358.695068,784.621765 2360.634766,784.921509 
	C2360.807129,785.186096 2361.436523,785.136841 2361.099121,785.784851 
	C2360.559814,786.876343 2360.358398,787.319824 2360.157227,787.763306 
	C2359.899414,790.448486 2358.459961,792.748657 2355.782715,791.476624 
	C2345.665283,786.669312 2336.266602,780.866577 2331.963867,768.908630 
z"/>
<path fill="#D2F3FC" opacity="1.000000" stroke="none" 
	d="
M2360.885742,787.742676 
	C2360.358398,787.319824 2360.559814,786.876343 2361.558105,785.395752 
	C2371.076660,779.967224 2379.815674,781.881165 2387.577637,783.573120 
	C2390.769043,781.666016 2393.528809,780.016968 2396.237305,779.057739 
	C2396.102539,781.125549 2396.019287,782.503479 2395.936035,783.881348 
	C2395.656250,784.180237 2395.376465,784.479065 2394.374512,785.220642 
	C2393.113525,785.803589 2392.630615,786.051941 2392.203369,786.408325 
	C2391.025635,786.992737 2389.847900,787.577209 2387.386475,788.510010 
	C2379.358154,788.789062 2372.614014,788.719849 2365.869629,788.650635 
	C2364.451172,788.341125 2363.032471,788.031616 2360.885742,787.742676 
z"/>
<path fill="#D2F3FC" opacity="1.000000" stroke="none" 
	d="
M2422.213379,744.075195 
	C2422.880371,751.194824 2422.264404,758.063110 2417.270996,765.103760 
	C2414.909180,768.016296 2413.534180,770.092529 2412.159424,772.168701 
	C2412.159424,772.168701 2411.968506,773.019348 2411.473633,773.418030 
	C2410.978516,773.816711 2410.021240,774.036011 2409.372803,774.030151 
	C2407.085693,775.288940 2405.446777,776.553650 2403.170898,777.869385 
	C2401.681885,777.940979 2400.830322,777.961548 2400.057861,777.289368 
	C2400.369873,775.988403 2400.420654,775.115295 2400.862549,774.811340 
	C2409.945801,768.566223 2414.769775,759.611267 2417.406738,749.204285 
	C2418.047363,746.676208 2418.589355,743.885071 2422.213379,744.075195 
z"/>
<path fill="#D2F3FC" opacity="1.000000" stroke="none" 
	d="
M2422.834473,729.826904 
	C2422.756836,731.357239 2422.679443,732.887573 2421.659180,735.105286 
	C2416.573730,733.663574 2416.309814,729.801514 2415.957520,725.781189 
	C2415.387451,719.273682 2414.423340,713.141052 2407.219727,709.819092 
	C2403.740723,708.214783 2401.250977,704.610168 2402.676758,699.918884 
	C2404.284424,699.730652 2405.203613,699.641113 2406.122559,699.551514 
	C2409.063721,702.796326 2412.004883,706.041138 2415.447266,709.643799 
	C2415.948486,710.001709 2415.968994,709.912781 2416.011475,710.689331 
	C2416.011230,711.982483 2415.968262,712.499207 2416.059570,713.270874 
	C2416.285889,714.046143 2416.459473,714.533691 2417.077637,715.765747 
	C2418.326416,719.530029 2419.068115,722.570984 2420.156982,725.482178 
	C2420.741943,727.045532 2421.922607,728.385925 2422.834473,729.826904 
z"/>
<path fill="#40A2DA" opacity="1.000000" stroke="none" 
	d="
M2365.938721,789.416992 
	C2372.614014,788.719849 2379.358154,788.789062 2386.874512,788.924194 
	C2387.126465,790.412964 2386.635986,793.058289 2386.081787,793.071716 
	C2379.760742,793.224426 2373.427002,793.023987 2367.105957,792.721924 
	C2366.700439,792.702515 2366.372070,791.067078 2365.938721,789.416992 
z"/>
<path fill="#85CAEE" opacity="1.000000" stroke="none" 
	d="
M2345.777344,696.718262 
	C2349.728027,694.929260 2353.392578,693.678711 2357.527832,693.176880 
	C2355.200928,696.513367 2352.403320,699.101135 2349.197021,701.733948 
	C2348.788086,701.778992 2347.986328,701.964966 2347.986328,701.964966 
	C2347.033936,701.953125 2346.081299,701.941284 2344.419434,701.819214 
	C2344.303955,700.224854 2344.897705,698.740784 2345.777344,696.718262 
z"/>
<path fill="#44A5DC" opacity="1.000000" stroke="none" 
	d="
M2410.021240,774.036011 
	C2410.021240,774.036011 2410.978516,773.816711 2411.468018,773.853882 
	C2413.855225,777.010071 2414.341797,779.975342 2410.347412,781.734375 
	C2407.271484,783.088867 2404.011230,784.024780 2400.672852,784.135742 
	C2401.679932,782.087952 2402.846924,781.051086 2404.691650,779.947754 
	C2406.919922,777.932922 2408.470703,775.984497 2410.021240,774.036011 
z"/>
<path fill="#A2DAF3" opacity="1.000000" stroke="none" 
	d="
M2404.014160,780.014221 
	C2402.846924,781.051086 2401.679932,782.087952 2400.249023,783.657898 
	C2399.081055,784.170349 2398.177002,784.149597 2396.604492,784.005127 
	C2396.019287,782.503479 2396.102539,781.125549 2396.848145,778.975342 
	C2398.333252,778.129395 2399.156006,778.055786 2399.978760,777.982178 
	C2400.830322,777.961548 2401.681885,777.940979 2403.239502,778.417542 
	C2403.968262,779.281128 2403.991211,779.647644 2404.014160,780.014221 
z"/>
<path fill="#7FC4E7" opacity="1.000000" stroke="none" 
	d="
M2412.777832,772.136047 
	C2413.534180,770.092529 2414.909180,768.016296 2416.920898,765.759644 
	C2417.661133,766.541931 2417.764648,767.504578 2417.838379,769.192383 
	C2416.338135,770.646179 2414.867432,771.374756 2412.777832,772.136047 
z"/>
<path fill="#44A5DC" opacity="1.000000" stroke="none" 
	d="
M2416.974365,709.069275 
	C2422.114014,707.448730 2421.778564,711.157715 2422.092529,715.074707 
	C2422.138916,715.869690 2422.009521,715.983337 2421.397461,715.779297 
	C2419.666260,715.179565 2418.547119,714.783875 2417.412598,713.972534 
	C2417.397217,713.556885 2417.817139,712.838806 2417.802246,711.813477 
	C2417.788330,710.104431 2417.789551,709.420776 2417.585449,708.816772 
	C2417.379883,708.896362 2416.974365,709.069275 2416.974365,709.069275 
z"/>
<path fill="#85CAEE" opacity="1.000000" stroke="none" 
	d="
M2335.453369,710.402710 
	C2334.700439,710.198486 2334.522705,709.767822 2334.184570,708.656921 
	C2335.684326,706.713989 2337.345215,705.451355 2339.667969,704.319092 
	C2338.896240,706.358337 2337.462402,708.267395 2335.453369,710.402710 
z"/>
<path fill="#44A5DC" opacity="1.000000" stroke="none" 
	d="
M2406.037842,698.954834 
	C2405.203613,699.641113 2404.284424,699.730652 2402.682617,699.910156 
	C2402.000000,700.000000 2401.984863,700.011475 2401.831055,699.455811 
	C2400.519531,697.929932 2399.362061,696.959717 2398.892090,696.040039 
	C2400.037598,696.052979 2400.495605,696.015503 2400.953369,695.978027 
	C2402.619873,696.771423 2404.286621,697.564819 2406.037842,698.954834 
z"/>
<path fill="#7FC4E7" opacity="1.000000" stroke="none" 
	d="
M2400.652344,695.514404 
	C2400.495605,696.015503 2400.037598,696.052979 2398.184570,696.073425 
	C2395.050049,694.876953 2393.310547,693.697571 2391.570801,692.518188 
	C2393.904785,692.963135 2396.238770,693.408142 2399.299805,693.923462 
	C2400.135254,694.346130 2400.243164,694.698425 2400.652344,695.514404 
z"/>
<path fill="#40A2DA" opacity="1.000000" stroke="none" 
	d="
M2395.122559,787.578003 
	C2395.584717,788.697571 2396.046875,789.817200 2396.508789,790.936829 
	C2395.700684,790.280090 2394.892334,789.623352 2394.313721,788.280396 
	C2394.543213,787.594116 2395.122559,787.578003 2395.122559,787.578003 
z"/>
<path fill="#A2DAF3" opacity="1.000000" stroke="none" 
	d="
M2395.053711,786.986572 
	C2395.122559,787.578003 2394.543213,787.594116 2394.263672,787.668579 
	C2393.621826,787.611633 2393.259521,787.480286 2392.550293,786.878662 
	C2392.630615,786.051941 2393.113525,785.803589 2393.897949,785.607788 
	C2394.424072,785.833252 2394.704346,786.114258 2395.053711,786.986572 
z"/>
<path fill="#FCFFFF" opacity="1.000000" stroke="none" 
	d="
M2416.974609,709.333618 
	C2416.974365,709.069275 2417.379883,708.896362 2417.009277,708.922241 
	C2416.415527,709.269653 2416.192383,709.591187 2415.968994,709.912781 
	C2415.968994,709.912781 2415.948486,710.001709 2415.991699,710.008667 
	C2416.449463,710.102417 2416.762939,709.963196 2416.974609,709.333618 
z"/>
<path fill="#FCFFFF" opacity="1.000000" stroke="none" 
	d="
M2400.057861,777.289429 
	C2399.156006,778.055786 2398.333252,778.129395 2396.899414,778.285400 
	C2393.528809,780.016968 2390.769043,781.666016 2387.577637,783.573120 
	C2379.815674,781.881165 2371.076660,779.967224 2361.895752,784.747742 
	C2361.436523,785.136841 2360.807129,785.186096 2360.507812,784.234863 
	C2359.375000,775.599365 2353.842285,778.339661 2349.493652,778.453491 
	C2349.493652,778.453491 2349.438721,778.415222 2349.400146,778.433960 
	C2350.678955,773.849243 2346.799561,772.000977 2344.421143,769.522827 
	C2331.283936,755.835205 2328.096924,738.746155 2336.392578,721.413757 
	C2339.448730,715.028259 2344.009521,709.362854 2347.935059,702.666992 
	C2347.986328,701.964966 2348.788086,701.778992 2349.990723,701.781982 
	C2353.070068,701.191284 2355.085449,700.861877 2356.801025,699.961060 
	C2367.769043,694.201050 2378.986328,695.484802 2390.381836,698.315613 
	C2394.156982,699.253418 2398.112061,699.466858 2401.984863,700.011475 
	C2401.984863,700.011475 2402.000000,700.000000 2401.994141,700.008789 
	C2401.250977,704.610168 2403.740723,708.214783 2407.219727,709.819092 
	C2414.423340,713.141052 2415.387451,719.273682 2415.957520,725.781189 
	C2416.309814,729.801514 2416.573730,733.663574 2421.483887,735.852478 
	C2422.319092,738.092590 2422.386963,740.272888 2422.334229,743.264160 
	C2418.589355,743.885071 2418.047363,746.676208 2417.406738,749.204285 
	C2414.769775,759.611267 2409.945801,768.566223 2400.862549,774.811340 
	C2400.420654,775.115295 2400.369873,775.988403 2400.057861,777.289429 
z"/>
<path fill="#A2DAF3" opacity="1.000000" stroke="none" 
	d="
M2330.224609,759.884705 
	C2328.969482,756.287659 2327.714600,752.690613 2326.660645,748.386719 
	C2331.331055,749.911499 2330.942139,754.520142 2331.647461,759.139038 
	C2331.200195,759.903442 2330.224609,759.884705 2330.224609,759.884705 
z"/>
<path fill="#85CAEE" opacity="1.000000" stroke="none" 
	d="
M2330.206055,760.538574 
	C2330.224609,759.884705 2331.200195,759.903442 2331.688721,759.875000 
	C2332.847412,761.403015 2333.517334,762.959412 2334.175293,765.173950 
	C2333.804443,765.890564 2333.445557,765.948914 2332.541504,766.037598 
	C2331.393555,764.442810 2330.790527,762.817688 2330.206055,760.538574 
z"/>
<path fill="#A2DAF3" opacity="1.000000" stroke="none" 
	d="
M2327.497803,730.106750 
	C2327.417969,728.892334 2327.899902,727.447144 2328.983887,725.781799 
	C2329.077393,726.999756 2328.568359,728.437866 2327.497803,730.106750 
z"/>
<path fill="#7FC4E7" opacity="1.000000" stroke="none" 
	d="
M2417.428223,714.388184 
	C2418.547119,714.783875 2419.666260,715.179565 2421.331055,715.834290 
	C2422.466064,720.315491 2423.055176,724.537720 2423.239258,729.293396 
	C2421.922607,728.385925 2420.741943,727.045532 2420.156982,725.482178 
	C2419.068115,722.570984 2418.326416,719.530029 2417.297607,715.663818 
	C2417.154785,714.784668 2417.428223,714.388123 2417.428223,714.388184 
z"/>
<path fill="#D2F3FC" opacity="1.000000" stroke="none" 
	d="
M2401.831055,699.455811 
	C2398.112061,699.466858 2394.156982,699.253418 2390.381836,698.315613 
	C2378.986328,695.484802 2367.769043,694.201050 2356.801025,699.961060 
	C2355.085449,700.861877 2353.070068,701.191284 2350.399658,701.736938 
	C2352.403320,699.101135 2355.200928,696.513367 2358.242676,693.336304 
	C2360.421631,692.422485 2362.356445,692.097961 2365.935059,691.833191 
	C2373.153076,691.723877 2378.727295,691.554810 2384.301514,691.385742 
	C2386.244873,691.674927 2388.187988,691.964111 2390.851074,692.385742 
	C2393.310547,693.697571 2395.050049,694.876953 2397.497314,696.022949 
	C2399.362061,696.959717 2400.519531,697.929932 2401.831055,699.455811 
z"/>
<path fill="#7FC4E7" opacity="1.000000" stroke="none" 
	d="
M2384.013184,690.690002 
	C2378.727295,691.554810 2373.153076,691.723877 2366.663086,691.702820 
	C2370.594482,687.205078 2375.383545,686.800598 2384.013184,690.690002 
z"/>
<path fill="#D2F3FC" opacity="1.000000" stroke="none" 
	d="
M2349.465088,778.898682 
	C2353.842285,778.339661 2359.375000,775.599365 2360.335449,783.970276 
	C2358.695068,784.621765 2356.927490,784.586609 2354.538086,783.425049 
	C2352.527344,781.592224 2351.138428,780.885803 2349.749756,780.179382 
	C2349.749756,780.179382 2349.436523,779.343872 2349.465088,778.898682 
z"/>
<path fill="#A2DAF3" opacity="1.000000" stroke="none" 
	d="
M2349.880371,780.819153 
	C2351.138428,780.885803 2352.527344,781.592224 2354.075195,782.906250 
	C2352.826416,782.828979 2351.418701,782.143921 2349.880371,780.819153 
z"/>
<path fill="#7FC4E7" opacity="1.000000" stroke="none" 
	d="
M2404.691650,779.947754 
	C2403.991211,779.647644 2403.968262,779.281128 2403.876953,778.366455 
	C2405.446777,776.553650 2407.085693,775.288940 2409.372803,774.030151 
	C2408.470703,775.984497 2406.919922,777.932922 2404.691650,779.947754 
z"/>
<path fill="#FCFFFF" opacity="1.000000" stroke="none" 
	d="
M2417.412598,713.972534 
	C2417.428223,714.388123 2417.154785,714.784668 2416.934814,714.886597 
	C2416.459473,714.533691 2416.285889,714.046143 2416.524658,713.138062 
	C2416.855469,712.750366 2417.817139,712.838806 2417.817139,712.838806 
	C2417.817139,712.838806 2417.397217,713.556885 2417.412598,713.972534 
z"/>
<path fill="#23A2E9" opacity="1.000000" stroke="none" 
	d="
M2417.802246,711.813477 
	C2417.817139,712.838806 2416.855469,712.750366 2416.390381,712.883179 
	C2415.968262,712.499207 2416.011230,711.982483 2416.011475,710.689331 
	C2416.192383,709.591187 2416.415527,709.269653 2417.214844,708.842590 
	C2417.789551,709.420776 2417.788330,710.104431 2417.802246,711.813477 
z"/>
</svg>